<?xml version="1.0" encoding="utf-8"?>
<!-- Generator: Adobe Illustrator 20.0.0, SVG Export Plug-In . SVG Version: 6.00 Build 0)  -->
<svg version="1.1" id="Capa_1" xmlns="http://www.w3.org/2000/svg" xmlns:xlink="http://www.w3.org/1999/xlink" x="0px" y="0px"
	 viewBox="0 0 59 59" style="enable-background:new 0 0 59 59;" xml:space="preserve">
<style type="text/css">
	.st0{fill:#FF1744;}
	.st1{fill:#76FF03;}
	.st2{fill:#64DD17;}
	.st3{fill:#FFFFFF;}
</style>
<g>
	<path class="st0" d="M26.6,26.7c-0.1,0.1-0.3,0.2-0.4,0.2c-0.9,0.4-5.2,2.3-10.2,0.4c-0.6,1.4-1.5,2.9-3.1,4.5
		c-1.4,1.4-3.1,2.7-5.2,3.8c0.9,2.6,2.7,5.3,5.5,8.1c9.7,9.7,31.3,12.4,37.1,6.7s3-27.5-6.7-37.1c-2.9-2.9-5.6-4.7-8.4-5.6
		c0,0.1,0,0.1-0.1,0.2c-2.2,4-4.6,6.7-7.1,7.9c1.7,4.8-0.1,8.9-0.5,9.8c-0.1,0.3-0.3,0.6-0.6,0.8"/>
	<path class="st1" d="M14.6,17.1l-5.2,1.5c-0.2,0.1-0.3,0.2-0.5,0.4c-0.9,0.9-1.6,2-2.3,3.5c-0.2,0.5,0,1,0.4,1.3
		c0.9,0.5,1.9,0.8,2.9,0.9c-2.6,3.9-3.3,7.5-2.3,10.9c0.1,0.3,0.3,0.5,0.6,0.6c0.3,0.1,0.6,0.1,0.9,0c2.1-1.2,3.9-2.4,5.3-3.8
		c2.3-2.3,2.8-3.3,3-4.8c5,3,9.8,0,10.8-0.5c0.1,0,0.2-0.1,0.3-0.2c0.1-0.1,0.1-0.2,0.2-0.3c0.4-0.9,2.9-5,0.2-9.9
		c1.2-0.1,2.1-1,3.9-2.8l0,0c1.2-1.2,2.5-3,3.6-5.1c0.1-0.3,0.2-0.6,0-0.9c-0.1-0.3-0.9-0.4-0.7-0.6c-3.5-0.9-7.3,0-11.2,2.6
		c-0.1-1-0.4-1.9-0.9-2.8c-0.3-0.5-0.8-0.7-1.3-0.4c-1.4,0.7-2.6,1.4-3.5,2.3c-0.7,0.7-1.7,4.7-1.9,5.3"/>
	<path class="st2" d="M14.8,18.4c0.4,0.2,0.9,0.1,1.2-0.2c0,0,0.1-0.1,0.1-0.2l1.6-2.5c0.3-0.4,0.2-1-0.2-1.3l-7.2-6.1
		C10.1,8,9.8,7.9,9.5,8C9.3,8,9,8.2,8.9,8.5l-2.5,4.6c-0.1,0.2-0.2,0.5-0.1,0.8c0.1,0.3,0.3,0.5,0.5,0.6L14.8,18.4z"/>
</g>
<g>
	<path class="st3" d="M24.6,39.1c0,0.5-0.2,1-0.6,1.4c-0.4,0.4-0.8,0.6-1.4,0.6c-0.5,0-1-0.2-1.4-0.6c-0.4-0.4-3-5.2-3-5.2
		c-0.2-0.4,0.2-0.8,0.6-0.6c0,0,4.8,2.7,5.2,3C24.4,38.1,24.6,38.6,24.6,39.1z"/>
	<path class="st3" d="M37.2,44.9c0,0.5-0.2,1-0.6,1.4c-0.4,0.4-0.8,0.6-1.4,0.6c-0.5,0-1-0.2-1.4-0.6c-0.4-0.4-3-5.2-3-5.2
		c-0.2-0.4,0.2-0.8,0.6-0.6c0,0,4.8,2.7,5.2,3C37,43.9,37.2,44.4,37.2,44.9z"/>
	<path class="st3" d="M48.5,46.3c0,0.5-0.2,1-0.6,1.4s-0.8,0.6-1.4,0.6c-0.5,0-1-0.2-1.4-0.6c-0.4-0.4-3-5.2-3-5.2
		c-0.2-0.4,0.2-0.8,0.6-0.6c0,0,4.8,2.7,5.2,3C48.3,45.3,48.5,45.8,48.5,46.3z"/>
	<path class="st3" d="M47.1,35c0,0.5-0.2,1-0.6,1.4c-0.4,0.4-0.8,0.6-1.4,0.6c-0.5,0-1-0.2-1.4-0.6c-0.4-0.4-3-5.2-3-5.2
		c-0.2-0.4,0.2-0.8,0.6-0.6c0,0,4.8,2.7,5.2,3C46.9,34,47.1,34.5,47.1,35z"/>
	<path class="st3" d="M40.9,22.9c0,0.5-0.2,1-0.6,1.4c-0.4,0.4-0.8,0.6-1.4,0.6c-0.5,0-1-0.2-1.4-0.6c-0.4-0.4-3-5.2-3-5.2
		c-0.2-0.4,0.2-0.8,0.6-0.6c0,0,4.8,2.7,5.2,3C40.7,21.9,40.9,22.4,40.9,22.9z"/>
	<path class="st3" d="M35.8,33.6c0,0.5-0.2,1-0.6,1.4s-0.8,0.6-1.4,0.6c-0.5,0-1-0.2-1.4-0.6c-0.4-0.4-3-5.2-3-5.2
		c-0.2-0.4,0.2-0.8,0.6-0.6c0,0,4.8,2.7,5.2,3C35.6,32.6,35.8,33.1,35.8,33.6z"/>
</g>
</svg>
